<svg xmlns="http://www.w3.org/2000/svg" xmlns:xlink="http://www.w3.org/1999/xlink" xmlns:lucid="lucid" width="6000" height="5000"><g transform="translate(3000 0)" lucid:page-tab-id="0_0"><path d="M-2636.38 1560c57.2 0 103.62-46.42 103.62-103.62s-46.42-103.62-103.62-103.62-103.62 46.42-103.62 103.62 46.42 103.62 103.62 103.62z" stroke="#000" stroke-opacity="0" fill="#e6e7e8"/><path d="M-2644.05 1523.1c27.15 0 49.12-21.96 49.12-48.9 0-27.15-21.97-49.1-49.12-49.1s-48.9 21.95-48.9 49.1c0 26.94 21.75 48.9 48.9 48.9z" stroke="#000" stroke-opacity="0" fill="#4ed29f"/><path d="M-2599.7 1461.77c17.82 0 32.12-14.5 32.12-32.33 0-17.62-14.3-32.12-32.12-32.12-17.82 0-32.12 14.5-32.12 32.12 0 17.82 14.3 32.33 32.12 32.33z" stroke="#000" stroke-opacity="0" fill="#1b6ded"/><path d="M-2650.9 1412.86c7.68 0 13.7-6.22 13.7-13.68 0-7.67-6.02-13.88-13.7-13.88-7.45 0-13.66 6.2-13.66 13.88 0 7.46 6.2 13.68 13.67 13.68z" stroke="#000" stroke-opacity="0" fill="#ffcc72"/><path d="M-2500 1386a6 6 0 0 1 6-6h408a6 6 0 0 1 6 6v133a6 6 0 0 1-6 6h-408a6 6 0 0 1-6-6z" stroke="#000" stroke-opacity="0" fill="#fff" fill-opacity="0"/><use xlink:href="#a" transform="matrix(1,0,0,1,-2495,1385) translate(-18.05000000000001 104.65)"/><defs><path fill="#cbd5e1" d="M80-683c58-12 143-18 208-18 190 0 321 53 321 233 0 198-160 242-373 236V0H80v-683zm368 214c0-104-112-104-212-96v200c112 0 212 3 212-104" id="b"/><path fill="#cbd5e1" d="M304-540c166 0 258 108 258 276 0 170-90 278-258 278S45-95 45-264c0-168 94-276 259-276zm0 426c75 0 106-68 106-150s-31-148-106-148-107 66-107 148 32 150 107 150" id="c"/><path fill="#cbd5e1" d="M219-203c-2 61 24 87 82 90L280 10C144 10 70-36 70-173v-579l149-24v573" id="d"/><path fill="#cbd5e1" d="M280-179c38-107 73-232 103-347h154C478-328 417-155 336 17c-43 91-86 168-218 168-42 1-85-10-113-21L31 45c41 16 112 24 141-7 14-14 26-35 36-60C132-173 63-338 10-526h158c31 117 71 240 112 347" id="e"/><path fill="#cbd5e1" d="M774-526C722-346 666-160 599 0H483c-32-100-66-198-93-302-27 104-57 202-90 302H184C118-160 62-347 10-526h157c25 114 52 235 83 344 32-111 63-229 90-344h108c26 114 55 234 87 344 32-109 59-230 84-344h155" id="f"/><path fill="#cbd5e1" d="M70-498c86-33 237-58 342-19l-25 123c-45-13-116-24-168-8V0H70v-498" id="g"/><path fill="#cbd5e1" d="M183-166c-2 75 96 63 162 58v-113c-63-10-160-16-162 55zm-148 4c-1-153 163-182 310-156 2-69-30-99-103-98-49 0-104 8-139 21L84-515c50-14 111-24 175-25 152-2 229 65 229 215v310C426-2 349 12 261 11 129 9 36-30 35-162" id="h"/><path fill="#cbd5e1" d="M219-137c18 12 52 21 82 21 71 0 106-48 106-143 0-113-71-175-188-147v269zm66-401c176 0 274 99 274 275 0 162-70 273-230 273-44 0-78-9-110-23v198H70v-693c62-18 137-30 215-30" id="i"/><g id="a"><use transform="matrix(0.1,0,0,0.1,0,0)" xlink:href="#b"/><use transform="matrix(0.1,0,0,0.1,62.900000000000006,0)" xlink:href="#c"/><use transform="matrix(0.1,0,0,0.1,123.60000000000001,0)" xlink:href="#d"/><use transform="matrix(0.1,0,0,0.1,154.10000000000002,0)" xlink:href="#e"/><use transform="matrix(0.1,0,0,0.1,210.8,0)" xlink:href="#f"/><use transform="matrix(0.1,0,0,0.1,289.20000000000005,0)" xlink:href="#g"/><use transform="matrix(0.1,0,0,0.1,330.40000000000003,0)" xlink:href="#h"/><use transform="matrix(0.1,0,0,0.1,385.70000000000005,0)" xlink:href="#i"/></g></defs></g></svg>