<svg width="208" height="208" viewBox="0 0 208 208" fill="none" xmlns="http://www.w3.org/2000/svg">
<path d="M103.62 207.24C160.848 207.24 207.24 160.848 207.24 103.62C207.24 46.3923 160.848 0 103.62 0C46.3923 0 0 46.3923 0 103.62C0 160.848 46.3923 207.24 103.62 207.24Z" fill="#E6E7E8"/>
<path d="M95.9999 170.44C123.095 170.44 145.06 148.475 145.06 121.38C145.06 94.2852 123.095 72.3203 95.9999 72.3203C68.9049 72.3203 46.9399 94.2852 46.9399 121.38C46.9399 148.475 68.9049 170.44 95.9999 170.44Z" fill="#4ED29F"/>
<path d="M140.3 108.98C158.084 108.98 172.5 94.5637 172.5 76.7801C172.5 58.9965 158.084 44.5801 140.3 44.5801C122.516 44.5801 108.1 58.9965 108.1 76.7801C108.1 94.5637 122.516 108.98 140.3 108.98Z" fill="#1B6DED"/>
<path d="M89.16 60.0099C96.7208 60.0099 102.85 53.8807 102.85 46.3199C102.85 38.7591 96.7208 32.6299 89.16 32.6299C81.5992 32.6299 75.47 38.7591 75.47 46.3199C75.47 53.8807 81.5992 60.0099 89.16 60.0099Z" fill="#FFCC72"/>
</svg>
